<svg xmlns="http://www.w3.org/2000/svg" width="43.554" height="31.634" viewBox="0 0 43.554 31.634">
  <g id="agreement" transform="translate(0 -70.061)">
    <g id="Group_56" data-name="Group 56" transform="translate(13.36 70.097)">
      <g id="Group_55" data-name="Group 55" transform="translate(0 0)">
        <path id="Path_69" data-name="Path 69" d="M180.578,74.647a.9.9,0,0,1-.454.209,16.692,16.692,0,0,1-8.386-1.007,11.642,11.642,0,0,0-3.546-.8,8.715,8.715,0,0,0-4.813,1.909c-.332.218-.655.43-.975.624l-4.729,4.729a2.124,2.124,0,0,0,1.5,3.626h.726a2.1,2.1,0,0,0,1.337-.472c.347-.283.746-.615,1.172-.973,2.325-1.944,4.2-3.47,5.461-3.942a.888.888,0,0,1,.319-.058.905.905,0,0,1,.593.221L181.9,90.084l5.346-2.12V70.488Z" transform="translate(-157.053 -70.488)" fill="#004182"/>
      </g>
    </g>
    <g id="Group_58" data-name="Group 58" transform="translate(5.444 88.994)">
      <g id="Group_57" data-name="Group 57">
        <path id="Path_70" data-name="Path 70" d="M66.764,292.632a1.771,1.771,0,0,0-1.475.789l-.991,1.486a1.77,1.77,0,0,0-.3.984v.412a1.773,1.773,0,0,0,3.248.984l.991-1.486a1.77,1.77,0,0,0,.3-.984v-.412A1.772,1.772,0,0,0,66.764,292.632Z" transform="translate(-64 -292.632)" fill="#004182"/>
      </g>
    </g>
    <g id="Group_60" data-name="Group 60" transform="translate(8.166 90.809)">
      <g id="Group_59" data-name="Group 59" transform="translate(0 0)">
        <path id="Path_71" data-name="Path 71" d="M99.671,313.965H99.61a1.775,1.775,0,0,0-1.419.71l-1.835,2.448A1.769,1.769,0,0,0,96,318.186v.358a1.772,1.772,0,0,0,1.773,1.773h.062a1.775,1.775,0,0,0,1.419-.71l1.835-2.448a1.768,1.768,0,0,0,.356-1.063v-.358A1.772,1.772,0,0,0,99.671,313.965Z" transform="translate(-96 -313.965)" fill="#004182"/>
      </g>
    </g>
    <g id="Group_62" data-name="Group 62" transform="translate(11.796 92.624)">
      <g id="Group_61" data-name="Group 61" transform="translate(0 0)">
        <path id="Path_72" data-name="Path 72" d="M142.338,335.3h-.062a1.775,1.775,0,0,0-1.419.71l-1.835,2.448a1.768,1.768,0,0,0-.356,1.063v.358a1.772,1.772,0,0,0,1.773,1.773h.062a1.775,1.775,0,0,0,1.419-.71l1.835-2.448a1.768,1.768,0,0,0,.356-1.063v-.358A1.772,1.772,0,0,0,142.338,335.3Z" transform="translate(-138.667 -335.299)" fill="#004182"/>
      </g>
    </g>
    <g id="Group_64" data-name="Group 64" transform="translate(15.425 94.438)">
      <g id="Group_63" data-name="Group 63">
        <path id="Path_73" data-name="Path 73" d="M185.005,356.632h-.062a1.775,1.775,0,0,0-1.419.71l-1.835,2.448a1.768,1.768,0,0,0-.356,1.063v.358a1.772,1.772,0,0,0,1.773,1.773h.062a1.775,1.775,0,0,0,1.419-.71l1.835-2.448a1.771,1.771,0,0,0,.354-1.063V358.4h0A1.772,1.772,0,0,0,185.005,356.632Z" transform="translate(-181.334 -356.632)" fill="#004182"/>
      </g>
    </g>
    <g id="Group_66" data-name="Group 66" transform="translate(20.799 98.454)">
      <g id="Group_65" data-name="Group 65" transform="translate(0 0)">
        <path id="Path_74" data-name="Path 74" d="M247.45,405.242l-1.642-1.4c-.054.085-.08.187-.14.269l-1.167,1.555,1.221,1.132a.915.915,0,0,0,1.3.022C247.479,406.369,247.659,405.5,247.45,405.242Z" transform="translate(-244.501 -403.843)" fill="#004182"/>
      </g>
    </g>
    <g id="Group_68" data-name="Group 68" transform="translate(0 70.061)">
      <g id="Group_67" data-name="Group 67" transform="translate(0 0)">
        <path id="Path_75" data-name="Path 75" d="M37.563,91.656,24.348,80.086a38.542,38.542,0,0,0-4.464,3.41c-.432.363-.837.7-1.189.987a3.884,3.884,0,0,1-2.484.882h-.726A3.939,3.939,0,0,1,12.7,78.641l5.067-5c.26-.158.523-.33.789-.5a27.286,27.286,0,0,0-9.692-.053A6.353,6.353,0,0,1,3.78,71.7L0,70.061v17.51l4.718,1.962.5-.757a3.571,3.571,0,0,1,6.114.27,3.193,3.193,0,0,1,.437-.053,3.624,3.624,0,0,1,3.189,1.867,3.316,3.316,0,0,1,.441-.053,3.624,3.624,0,0,1,3.189,1.867,3.571,3.571,0,0,1,.441-.053H19.1a3.592,3.592,0,0,1,3.588,3.588v.354L24.962,98.5s.005.005.009.009l.867.737a2.974,2.974,0,0,0,1.838.635,1.358,1.358,0,0,0,.869-2.4L20.287,90.6a.907.907,0,1,1,1.163-1.392l10.2,8.5a1.566,1.566,0,0,0,1,.359h.267a1.565,1.565,0,0,0,1.033-2.737L23.917,86.971a.908.908,0,0,1,1.163-1.4l10,8.333c.016.013.033.027.047.04l.149.123a1.573,1.573,0,0,0,1.011.367h.243a1.585,1.585,0,0,0,1.032-2.782Z" transform="translate(0 -70.061)" fill="#004182"/>
      </g>
    </g>
  </g>
</svg>
