<svg id="Layer_1" data-name="Layer 1" xmlns="http://www.w3.org/2000/svg" xmlns:xlink="http://www.w3.org/1999/xlink" viewBox="0 0 915.16 257.32"><defs><style>.cls-1,.cls-4{fill:none;}.cls-2{fill:#fff;}.cls-3{opacity:0.2;}.cls-4{stroke:#3d66ab;stroke-dasharray:8;}.cls-5{clip-path:url(#clip-path);}.cls-10,.cls-11,.cls-6,.cls-7,.cls-8,.cls-9{opacity:0.09;isolation:isolate;}.cls-6{fill:url(#linear-gradient);}.cls-7{fill:url(#linear-gradient-2);}.cls-8{fill:url(#linear-gradient-3);}.cls-9{fill:url(#linear-gradient-4);}.cls-10{fill:url(#linear-gradient-5);}.cls-11{fill:url(#linear-gradient-6);}</style><clipPath id="clip-path" transform="translate(-27.33 5.71)"><rect id="Rectangle_10-2" data-name="Rectangle 10-2" class="cls-1" x="37.5" y="37.51" width="905" height="159" rx="20" ry="20"/></clipPath><linearGradient id="linear-gradient" x1="36.7" y1="196.11" x2="36.7" y2="195.11" gradientTransform="matrix(54.41, 31.41, 59.95, -103.84, -13346.38, 19208.9)" gradientUnits="userSpaceOnUse"><stop offset="0" stop-color="#004182"/><stop offset="0.56" stop-color="#004182"/><stop offset="1" stop-color="#fff" stop-opacity="0"/></linearGradient><linearGradient id="linear-gradient-2" x1="36.7" y1="196.11" x2="36.7" y2="195.11" gradientTransform="matrix(54.41, 31.41, 59.95, -103.84, -13265.06, 19208.9)" xlink:href="#linear-gradient"/><linearGradient id="linear-gradient-3" x1="36.7" y1="196.11" x2="36.7" y2="195.11" gradientTransform="matrix(54.41, 31.41, 59.95, -103.84, -13189.37, 19208.9)" xlink:href="#linear-gradient"/><linearGradient id="linear-gradient-4" x1="38.3" y1="195.89" x2="38.3" y2="194.89" gradientTransform="matrix(-54.41, -31.41, -59.95, 103.84, 14565.82, -18888.99)" xlink:href="#linear-gradient"/><linearGradient id="linear-gradient-5" x1="38.3" y1="195.89" x2="38.3" y2="194.89" gradientTransform="matrix(-54.41, -31.41, -59.95, 103.84, 14484.5, -18888.99)" xlink:href="#linear-gradient"/><linearGradient id="linear-gradient-6" x1="38.3" y1="195.89" x2="38.3" y2="194.89" gradientTransform="matrix(-54.41, -31.41, -59.95, 103.84, 14408.81, -18888.99)" xlink:href="#linear-gradient"/></defs><title>corona</title><g id="corona"><rect id="Rectangle_10-2-3" data-name="Rectangle 10-2" class="cls-2" x="10.16" y="43.21" width="905" height="159" rx="20" ry="20"/><g id="Rectangle_30" data-name="Rectangle 30" class="cls-3"><rect class="cls-1" x="18.17" y="50.21" width="889" height="145" rx="20" ry="20"/><rect class="cls-4" x="18.67" y="50.71" width="888" height="144" rx="19.5" ry="19.5"/></g><g class="cls-5"><g id="Group_12" data-name="Group 12"><path id="Path_49" data-name="Path 49" class="cls-6" d="M391.13-5.71l43.93,18L373.27,88.17c-7,8.6-22.52,11.55-34.65,6.58s-16.29-16-9.28-24.56Z" transform="translate(-27.33 5.71)"/><path id="Path_50" data-name="Path 50" class="cls-7" d="M472.45-5.71l43.93,18L454.59,88.17c-7,8.6-22.52,11.55-34.65,6.58s-16.29-16-9.28-24.56Z" transform="translate(-27.33 5.71)"/><path id="Path_51" data-name="Path 51" class="cls-8" d="M548.14-5.71l43.93,18-61.8,75.89c-7,8.6-22.51,11.55-34.64,6.58s-16.29-16-9.29-24.56Z" transform="translate(-27.33 5.71)"/></g><g id="Group_13" data-name="Group 13"><path id="Path_52" data-name="Path 52" class="cls-9" d="M754.31,251.61l-43.93-18,61.79-75.9c7-8.6,22.52-11.54,34.65-6.58s16.29,16,9.28,24.57Z" transform="translate(-27.33 5.71)"/><path id="Path_53" data-name="Path 53" class="cls-10" d="M673,251.61l-43.93-18,61.79-75.9c7-8.6,22.52-11.54,34.65-6.58s16.29,16,9.28,24.57Z" transform="translate(-27.33 5.71)"/><path id="Path_54" data-name="Path 54" class="cls-11" d="M597.3,251.61l-43.93-18,61.8-75.9c7-8.6,22.51-11.54,34.64-6.58s16.29,16,9.29,24.57Z" transform="translate(-27.33 5.71)"/></g></g><g class="cls-5"><image width="3000" height="2000" transform="matrix(-0.09, 0, 0, 0.09, 277.33, 30.65)" xlink:href="3605324.jpg"/></g></g></svg>