<svg xmlns="http://www.w3.org/2000/svg" width="45.716" height="50" viewBox="0 0 45.716 50">
  <g id="reload" transform="translate(-20.982 0)">
    <g id="Group_958" data-name="Group 958" transform="translate(20.982 0)">
      <path id="Path_36250" data-name="Path 36250" d="M30.291,9.915A19.933,19.933,0,0,1,56.2,9.231l-5.932.225a1.379,1.379,0,0,0,.051,2.757h.051l9.107-.337A1.376,1.376,0,0,0,60.809,10.5v-.163h0l-.337-9.005a1.379,1.379,0,1,0-2.757.1l.214,5.646a22.67,22.67,0,0,0-29.487.8,22.678,22.678,0,0,0-6.82,22.166,1.372,1.372,0,0,0,1.338,1.052,1.2,1.2,0,0,0,.327-.041A1.38,1.38,0,0,0,24.3,29.386,19.921,19.921,0,0,1,30.291,9.915Z" transform="translate(-20.982 0)" fill="#727272"/>
      <path id="Path_36251" data-name="Path 36251" d="M116.621,186.265a1.377,1.377,0,1,0-2.675.653,19.917,19.917,0,0,1-32.07,20.022l6-.541a1.379,1.379,0,0,0-.255-2.747l-9.077.817a1.377,1.377,0,0,0-1.246,1.5l.817,9.077a1.376,1.376,0,0,0,1.368,1.256.5.5,0,0,0,.123-.01,1.377,1.377,0,0,0,1.246-1.5l-.49-5.524a22.518,22.518,0,0,0,13.1,4.993c.388.02.776.031,1.154.031a22.674,22.674,0,0,0,22-28.027Z" transform="translate(-71.546 -166.304)" fill="#727272"/>
    </g>
  </g>
</svg>
