<svg xmlns="http://www.w3.org/2000/svg" width="63.326" height="50" viewBox="0 0 63.326 50">
  <g id="Group_1007" data-name="Group 1007" transform="translate(-672 -283)">
    <g id="Group_994" data-name="Group 994" transform="translate(672 283)">
      <g id="Group_993" data-name="Group 993">
        <path id="Path_36283" data-name="Path 36283" d="M50.212,71.342a17.706,17.706,0,0,0-35.034-3.4h-.17a15.008,15.008,0,1,0,0,30.015H25.489a1.351,1.351,0,1,0,0-2.7H15.008a12.307,12.307,0,1,1,0-24.613c.362,0,.744.019,1.169.059a1.351,1.351,0,0,0,1.465-1.162,15,15,0,0,1,29.871,2.044c0,.3-.022.605-.046.931l-.01.138A1.351,1.351,0,0,0,48.939,74.1a10.766,10.766,0,0,1,1.077-.054,10.609,10.609,0,1,1,0,21.219H38.994a1.351,1.351,0,1,0,0,2.7H50.016a13.31,13.31,0,0,0,.2-26.619Z" transform="translate(0 -53.873)" fill="#727272"/>
      </g>
    </g>
    <g id="Group_996" data-name="Group 996" transform="translate(693.241 289.347)">
      <g id="Group_995" data-name="Group 995">
        <path id="Path_36284" data-name="Path 36284" d="M183,105.192a11.392,11.392,0,0,0-11.245,9.816,1.351,1.351,0,0,0,1.156,1.521,1.373,1.373,0,0,0,.184.013,1.351,1.351,0,0,0,1.336-1.168A8.681,8.681,0,0,1,183,107.893a1.35,1.35,0,0,0,0-2.7Z" transform="translate(-171.74 -105.192)" fill="#727272"/>
      </g>
    </g>
    <g id="Group_998" data-name="Group 998" transform="translate(697.392 310.966)">
      <g id="Group_997" data-name="Group 997">
        <path id="Path_36285" data-name="Path 36285" d="M218.55,284.938l-4.912-4.388a2.229,2.229,0,0,0-2.972,0l-4.913,4.389a1.351,1.351,0,1,0,1.8,2.014l3.248-2.9v16.615a1.351,1.351,0,0,0,2.7,0V284.051l3.249,2.9a1.35,1.35,0,1,0,1.8-2.014Z" transform="translate(-205.302 -279.982)" fill="#727272"/>
      </g>
    </g>
  </g>
</svg>
