<?xml version="1.0" encoding="utf-8"?>
<!-- Generator: Adobe Illustrator 22.0.0, SVG Export Plug-In . SVG Version: 6.00 Build 0)  -->
<svg version="1.1" id="Layer_1" xmlns="http://www.w3.org/2000/svg" xmlns:xlink="http://www.w3.org/1999/xlink" x="0px" y="0px"
	 viewBox="0 0 31 31" style="enable-background:new 0 0 31 31;" xml:space="preserve">
<style type="text/css">
	.st0{fill:#F44336;}
</style>
<g>
	<path class="st0" d="M22.3,13.1v-0.8c0-1.8-0.7-3.6-1.8-4.8c-1.2-1.3-2.9-2-4.7-2h-0.6c-1.8,0-3.5,0.7-4.7,2s-1.8,3-1.8,4.8v0.8
		c-1.4,0.1-2.6,1.3-2.6,2.7V17c0,1.5,1.2,2.8,2.8,2.8h1.6c0.3,0,0.5-0.2,0.5-0.5v-5.7c0-0.3-0.2-0.5-0.5-0.5H9.7v-0.8
		c0-3.3,2.4-5.8,5.5-5.8h0.6c3.1,0,5.5,2.5,5.5,5.8v0.8h-0.7c-0.3,0-0.5,0.2-0.5,0.5v5.7c0,0.3,0.2,0.5,0.5,0.5h0.7
		c-0.2,2.6-2,3.2-2.9,3.4c-0.2-0.7-0.9-1.2-1.7-1.2h-1.3c-1,0-1.8,0.8-1.8,1.8s0.8,1.8,1.8,1.8h1.3c0.8,0,1.5-0.6,1.7-1.3
		c0.4-0.1,1.1-0.2,1.7-0.6c0.9-0.5,2-1.6,2.1-3.8c1.4-0.1,2.6-1.3,2.6-2.7V16C24.9,14.4,23.8,13.2,22.3,13.1z"/>
</g>
</svg>
