<?xml version="1.0" encoding="utf-8"?>
<!-- Generator: Adobe Illustrator 22.0.0, SVG Export Plug-In . SVG Version: 6.00 Build 0)  -->
<svg version="1.1" id="Layer_1" xmlns="http://www.w3.org/2000/svg" xmlns:xlink="http://www.w3.org/1999/xlink" x="0px" y="0px"
	 viewBox="0 0 419 136" style="enable-background:new 0 0 419 136;" xml:space="preserve">
<style type="text/css">
	.st0{fill:#17407A;}
	.st1{fill:#FCBC2B;}
</style>
<g>
	<g>
		<path class="st0" d="M19.7,54h-0.4c-1.5,0-2.9-0.3-4-1c-1.1-0.7-2-1.6-2.6-2.8c-0.3,0.4-0.7,0.8-1.1,1.1c-0.4,0.3-0.9,0.6-1.4,0.8
			c-0.3,0.1-0.7,0.2-1.1,0.3c-0.4,0.1-0.8,0.1-1.3,0.1c-0.4,0-0.9-0.1-1.4-0.2c-0.5-0.1-0.9-0.3-1.4-0.5c-0.7-0.4-1.2-0.8-1.7-1.4
			c-0.4-0.6-0.7-1.3-0.8-2.1c-0.2-1-0.1-2,0.2-2.9c0.3-0.9,0.8-1.8,1.6-2.6c1.3-1.3,3.2-2.4,5.6-3.1l-0.3-1.6l2.6-0.6
			c0.2,1,0.4,1.8,0.6,2.6c0.2,0.7,0.3,1.4,0.5,2c0,0.1,0.1,0.3,0.1,0.6c0.1,0.3,0.1,0.6,0.2,0.9c0.1,0.3,0.2,0.7,0.3,1.1
			c0.1,0.4,0.2,0.8,0.3,1.2c0.1,0.4,0.2,0.7,0.3,1.1c0.1,0.3,0.2,0.6,0.2,0.8c0.2,0.7,0.5,1.3,0.8,1.7c0.4,0.4,0.8,0.8,1.2,1
			c0.4,0.2,0.9,0.4,1.3,0.5c0.5,0.1,0.9,0.1,1.2,0.1h0.4V54z M10.6,42.4c-0.9,0.3-1.8,0.6-2.5,1s-1.3,0.8-1.8,1.3
			c-0.5,0.5-0.8,1-1,1.5C5,46.7,5,47.3,5.1,47.9c0.1,0.4,0.2,0.7,0.4,1c0.2,0.3,0.5,0.5,0.8,0.7c0.2,0.1,0.4,0.2,0.7,0.3
			c0.2,0.1,0.5,0.1,0.7,0.1s0.5,0,0.7-0.1c0.2,0,0.4-0.1,0.6-0.2c1.2-0.5,1.9-1.4,2.1-2.7c0.1-0.5,0.1-0.9,0-1.3
			c0-0.4-0.1-0.6-0.1-0.8L10.6,42.4z"/>
		<path class="st0" d="M25.4,51.3c0.1,0,0.2,0,0.2,0.1v2.5c0,0.1-0.1,0.1-0.2,0.1h-6.2c-0.1,0-0.1,0-0.1-0.1v-2.5
			c0-0.1,0-0.1,0.1-0.1H25.4z"/>
		<path class="st0" d="M38.3,54c-0.2,0-0.4,0-0.6-0.1s-0.5-0.1-0.7-0.3s-0.6-0.3-1-0.5c-0.4-0.2-0.8-0.5-1.3-0.9
			c-1.1,0.6-2.4,1-3.9,1.3c-1.5,0.3-3.1,0.4-5,0.4H25v-2.7h0.8c1.4,0,2.6-0.1,3.7-0.2c1.1-0.2,2-0.4,2.8-0.7c-0.5-0.4-1-0.9-1.5-1.3
			c-0.5-0.4-0.9-0.9-1.4-1.3c-0.4-0.4-0.8-0.7-1.1-1c-0.3-0.3-0.5-0.5-0.6-0.6v-0.6c0-0.2,0-0.4,0-0.6c0-0.2,0.1-0.4,0.1-0.7
			c0.1-0.2,0.1-0.5,0.3-0.7c0.1-0.2,0.3-0.5,0.5-0.7c0.7-0.8,1.9-1.2,3.5-1.2h4.8c0.8,0,1.5,0.2,2.2,0.6c0.6,0.4,1.1,0.9,1.4,1.6
			c0.2,0.4,0.3,0.9,0.3,1.3c0,0.4-0.1,0.8-0.2,1.3c-0.2,0.4-0.4,0.8-0.6,1.2c-0.3,0.4-0.6,0.7-0.9,1.1c-0.3,0.4-0.7,0.7-1,1
			c-0.3,0.3-0.7,0.6-0.9,0.9c0.2,0.1,0.4,0.3,0.5,0.4c0.2,0.1,0.3,0.2,0.4,0.2c0.1,0,0.2,0.1,0.2,0.1c0.1,0,0.1,0,0.1,0h5.3V54H38.3
			z M30.5,45.1c0.2,0.2,0.5,0.4,0.8,0.8c0.3,0.3,0.7,0.7,1.1,1c0.4,0.4,0.8,0.7,1.2,1.1c0.4,0.4,0.8,0.7,1.1,1
			c0.5-0.4,1-0.8,1.5-1.3c0.5-0.5,1-1,1.4-1.6c0.1-0.1,0.2-0.3,0.3-0.5c0.1-0.2,0.1-0.4,0-0.6c-0.1-0.1-0.2-0.3-0.4-0.4
			c-0.2-0.1-0.4-0.2-0.7-0.2h-4.8c-0.3,0-0.5,0-0.7,0c-0.2,0-0.3,0.1-0.4,0.1c-0.1,0-0.2,0.1-0.2,0.1c-0.1,0-0.1,0.1-0.1,0.1
			c0,0-0.1,0.1-0.1,0.1C30.6,44.9,30.6,45,30.5,45.1z"/>
		<path class="st0" d="M49.5,51.3c0.1,0,0.2,0,0.2,0.1v2.5c0,0.1-0.1,0.1-0.2,0.1h-6.2c-0.1,0-0.1,0-0.1-0.1v-2.5
			c0-0.1,0-0.1,0.1-0.1H49.5z"/>
		<path class="st0" d="M60.4,54c-0.9,0-1.7-0.1-2.4-0.4c-0.7-0.3-1.3-0.6-1.8-1.1c-0.5,0.5-1.1,0.9-1.7,1.2c-0.7,0.3-1.3,0.4-2,0.4
			h-3.2v-2.7h3.2c0.1,0,0.3,0,0.6-0.1c0.3,0,0.5-0.2,0.8-0.3c0.3-0.2,0.5-0.4,0.7-0.8c0.2-0.4,0.3-0.8,0.3-1.5v-0.1v-4.3h2.7v4.3
			c0,0.9,0.2,1.6,0.7,2c0.4,0.4,1.2,0.6,2.1,0.6c0.1,0,0.3,0,0.6-0.1c0.3-0.1,0.5-0.2,0.8-0.4c0.3-0.2,0.5-0.4,0.7-0.8
			c0.2-0.4,0.3-0.8,0.3-1.5v-4.3h2.7v4.3c0,0.9,0.2,1.6,0.7,2.1c0.5,0.4,1.2,0.7,2.2,0.7c0.2,0,0.4,0,0.6-0.1
			c0.3-0.1,0.5-0.2,0.8-0.4c0.3-0.2,0.5-0.5,0.7-0.8c0.2-0.4,0.3-0.8,0.3-1.4c0-0.2,0-0.5-0.1-0.8c0-0.3-0.1-0.7-0.1-1
			c-0.1-0.4-0.1-0.7-0.2-1.1c-0.1-0.4-0.1-0.7-0.2-1.1c-0.1-0.3-0.1-0.6-0.2-0.9c-0.1-0.3-0.1-0.5-0.1-0.6l2.6-0.8
			c0,0.1,0.1,0.2,0.1,0.5s0.1,0.5,0.2,0.9c0.1,0.4,0.2,0.8,0.2,1.2c0.1,0.4,0.2,0.9,0.2,1.3c0.1,0.4,0.1,0.9,0.2,1.3
			c0,0.4,0.1,0.8,0.1,1.1c0,0.9-0.1,1.7-0.4,2.4c-0.3,0.7-0.7,1.2-1.2,1.7c-0.5,0.4-1,0.8-1.6,1c-0.6,0.2-1.2,0.3-1.8,0.4
			c-0.9,0-1.7-0.1-2.4-0.4c-0.7-0.3-1.3-0.7-1.8-1.2c-0.5,0.5-1.1,0.9-1.7,1.2S61,54,60.4,54z"/>
		<path class="st0" d="M77.8,59.2c1.4,0,2.7-0.1,3.7-0.3c1-0.2,1.8-0.6,2.3-1c0.5-0.4,0.9-0.9,1.1-1.5c0.2-0.6,0.4-1.4,0.4-2.3h-2.6
			c-0.7,0-1.4-0.1-2-0.3c-0.7-0.2-1.3-0.5-1.9-1c-0.6-0.5-1-1.1-1.4-1.8c-0.4-0.7-0.5-1.7-0.5-2.7c0-0.6,0.1-1.2,0.2-1.7
			c0.1-0.5,0.2-1,0.4-1.4c0.2-0.4,0.4-0.8,0.6-1c0.2-0.3,0.4-0.6,0.6-0.8c0.5-0.5,1.1-0.9,1.8-1.2c0.7-0.3,1.4-0.4,2.2-0.4
			c0.7,0,1.3,0.1,1.9,0.3c0.6,0.2,1.1,0.5,1.6,0.9c1.3,1.2,1.9,3.1,1.9,5.7v2.7h2.2V54h-2.2c0,1.4-0.2,2.5-0.6,3.5
			c-0.4,1-1,1.8-1.8,2.5c-0.8,0.7-1.9,1.2-3.1,1.5c-1.3,0.3-2.8,0.5-4.6,0.5V59.2z M82.5,44.4c-0.9,0-1.7,0.3-2.2,1
			c-0.5,0.7-0.8,1.6-0.8,2.8c0,1.2,0.4,2.1,1.1,2.6c0.2,0.1,0.4,0.2,0.6,0.3c0.2,0.1,0.4,0.1,0.6,0.2c0.2,0,0.3,0.1,0.5,0.1
			c0.1,0,0.3,0,0.4,0h2.6v-2.7c0-0.7-0.1-1.3-0.2-1.8c-0.1-0.5-0.2-0.9-0.4-1.2c-0.2-0.3-0.3-0.6-0.6-0.7c-0.2-0.2-0.4-0.3-0.6-0.4
			c-0.2-0.1-0.4-0.1-0.6-0.1S82.6,44.4,82.5,44.4z"/>
		<path class="st0" d="M96,51.3c0.1,0,0.2,0,0.2,0.1v2.5c0,0.1-0.1,0.1-0.2,0.1h-6.2c-0.1,0-0.1,0-0.1-0.1v-2.5c0-0.1,0-0.1,0.1-0.1
			H96z"/>
		<path class="st0" d="M105.7,42.3c0,0.1,0.1,0.2,0.1,0.5c0.1,0.3,0.1,0.6,0.2,0.9c0.1,0.4,0.2,0.8,0.2,1.2c0.1,0.4,0.2,0.9,0.2,1.4
			c0.1,0.5,0.1,0.9,0.2,1.3c0,0.4,0.1,0.8,0.1,1.1c0,0.9-0.2,1.7-0.5,2.4c-0.3,0.7-0.7,1.2-1.2,1.7c-0.5,0.4-1,0.8-1.6,1
			c-0.6,0.2-1.2,0.3-1.8,0.3h-6v-2.7h6c0.1,0,0.3,0,0.6-0.1c0.3,0,0.5-0.2,0.8-0.3c0.3-0.2,0.5-0.4,0.7-0.8c0.2-0.3,0.3-0.8,0.3-1.4
			c0-0.2,0-0.5-0.1-0.8c0-0.3-0.1-0.7-0.1-1c-0.1-0.4-0.1-0.7-0.2-1.1c-0.1-0.4-0.1-0.8-0.2-1.1c-0.1-0.3-0.1-0.7-0.2-0.9
			c-0.1-0.3-0.1-0.5-0.1-0.6L105.7,42.3z M99.5,39.2l-2.3-2.3l2.2-2.3l2.3,2.3L99.5,39.2z M105,39.3l-2.3-2.3l2.2-2.3l2.3,2.3
			L105,39.3z"/>
		<path class="st0" d="M130.2,62h-1.4c-0.7,0-1.4-0.1-2.1-0.3c-0.7-0.2-1.3-0.4-1.9-0.7c-0.6-0.3-1.1-0.7-1.6-1.2
			c-0.5-0.5-0.9-1-1.3-1.6c-0.5-0.8-0.9-1.7-1.1-2.7c-0.2-1-0.3-2.1-0.3-3.2c0.1-1.1,0.3-2.3,0.6-3.6c0.4-1.2,0.9-2.5,1.5-3.8
			l2.4,1.2c-0.5,1.1-1,2.2-1.3,3.2c-0.3,1-0.5,2-0.6,2.9c-0.1,0.9,0,1.8,0.1,2.5c0.2,0.8,0.4,1.5,0.8,2.1c0.5,0.8,1.1,1.4,1.9,1.8
			c0.8,0.4,1.7,0.6,2.7,0.6h1.3v0c1.4,0,2.7-0.1,3.7-0.3c1-0.2,1.8-0.6,2.3-1c0.5-0.4,0.9-0.9,1.1-1.5c0.2-0.6,0.4-1.4,0.4-2.3h-2.6
			c-0.7,0-1.4-0.1-2-0.3c-0.7-0.2-1.3-0.5-1.9-1c-0.6-0.5-1-1.1-1.4-1.8c-0.4-0.7-0.5-1.7-0.5-2.7c0-0.6,0.1-1.2,0.2-1.7
			c0.1-0.5,0.2-1,0.4-1.4c0.2-0.4,0.4-0.8,0.6-1c0.2-0.3,0.4-0.6,0.6-0.8c0.5-0.5,1.1-0.9,1.8-1.2c0.7-0.3,1.4-0.4,2.2-0.4
			c0.7,0,1.3,0.1,1.9,0.3c0.6,0.2,1.1,0.5,1.6,0.9c1.3,1.2,1.9,3.1,1.9,5.7V54c0,1.4-0.2,2.5-0.6,3.5c-0.4,1-1,1.8-1.8,2.5
			c-0.8,0.7-1.9,1.2-3.1,1.5C133.4,61.8,131.9,61.9,130.2,62L130.2,62z M131.6,38.6l-2.3-2.3l2.2-2.3l2.3,2.3L131.6,38.6z
			 M134.7,44.4c-0.9,0-1.7,0.3-2.2,1c-0.5,0.7-0.8,1.6-0.8,2.8c0,1.2,0.4,2.1,1.1,2.6c0.2,0.1,0.4,0.2,0.6,0.3
			c0.2,0.1,0.4,0.1,0.6,0.2s0.3,0.1,0.5,0.1c0.1,0,0.3,0,0.4,0h2.6v-2.7c0-0.7-0.1-1.3-0.2-1.8c-0.1-0.5-0.2-0.9-0.4-1.2
			c-0.2-0.3-0.3-0.6-0.6-0.7c-0.2-0.2-0.4-0.3-0.6-0.4c-0.2-0.1-0.4-0.1-0.6-0.1C135,44.4,134.8,44.4,134.7,44.4z M137.1,38.6
			l-2.3-2.3l2.2-2.3l2.3,2.3L137.1,38.6z"/>
		<path class="st0" d="M145.2,59.2c1.4,0,2.7-0.1,3.7-0.3c1-0.2,1.8-0.6,2.3-1c0.5-0.4,0.9-0.9,1.1-1.5c0.2-0.6,0.4-1.4,0.4-2.3H150
			c-0.7,0-1.4-0.1-2-0.3c-0.7-0.2-1.3-0.5-1.9-1c-0.6-0.5-1-1.1-1.4-1.8c-0.4-0.7-0.5-1.7-0.5-2.7c0-0.6,0.1-1.2,0.2-1.7
			c0.1-0.5,0.2-1,0.4-1.4c0.2-0.4,0.4-0.8,0.6-1c0.2-0.3,0.4-0.6,0.6-0.8c0.5-0.5,1.1-0.9,1.8-1.2c0.7-0.3,1.4-0.4,2.2-0.4
			c0.7,0,1.3,0.1,1.9,0.3c0.6,0.2,1.1,0.5,1.6,0.9c1.3,1.2,1.9,3.1,1.9,5.7v2.7V54c0,1.4-0.2,2.5-0.6,3.5c-0.4,1-1,1.8-1.8,2.5
			c-0.8,0.7-1.9,1.2-3.1,1.5c-1.3,0.3-2.8,0.5-4.6,0.5V59.2z M149.9,44.4c-0.9,0-1.7,0.3-2.2,1c-0.5,0.7-0.8,1.6-0.8,2.8
			c0,1.2,0.4,2.1,1.1,2.6c0.2,0.1,0.4,0.2,0.6,0.3c0.2,0.1,0.4,0.1,0.6,0.2s0.3,0.1,0.5,0.1c0.1,0,0.3,0,0.4,0h2.6v-2.7
			c0-0.7-0.1-1.3-0.2-1.8c-0.1-0.5-0.2-0.9-0.4-1.2c-0.2-0.3-0.3-0.6-0.6-0.7c-0.2-0.2-0.4-0.3-0.6-0.4c-0.2-0.1-0.4-0.1-0.6-0.1
			C150.2,44.4,150,44.4,149.9,44.4z"/>
		<path class="st0" d="M175.3,51.3V54h-0.5c-1.4,0-2.7-0.6-4-1.8c-0.7,1-2,1.6-3.8,1.8c-0.3,0-0.7,0.1-1.1,0.1c-0.4,0-0.8,0-1.2,0
			c-0.5,0-1,0-1.5-0.1c-0.5,0-1-0.1-1.5-0.2c-0.5-0.1-0.9-0.2-1.4-0.4c-0.4-0.1-0.8-0.3-1.2-0.5l-1.2-0.7l1.4-2.4l1.2,0.7
			c0.3,0.2,0.7,0.3,1.2,0.5c0.5,0.1,1,0.2,1.5,0.3c0.5,0.1,1.1,0.1,1.7,0.1c0.6,0,1.1-0.1,1.6-0.1c0.6-0.1,1-0.2,1.4-0.4
			c0.4-0.2,0.6-0.3,0.7-0.5c0.1-0.2,0.2-0.4,0.1-0.7s-0.3-0.6-0.5-1l-5.4-8.2l2.3-1.5l5.6,8.5c0.3,0.4,0.6,0.8,0.9,1.3
			c0.3,0.4,0.6,0.8,0.9,1.2c0.3,0.4,0.7,0.7,1,0.9s0.8,0.4,1.2,0.4H175.3z"/>
		<path class="st0" d="M181.1,51.3c0.1,0,0.2,0,0.2,0.1v2.5c0,0.1-0.1,0.1-0.2,0.1h-6.2c-0.1,0-0.1,0-0.1-0.1v-2.5
			c0-0.1,0-0.1,0.1-0.1H181.1z"/>
		<path class="st0" d="M192.7,51.3V54h-1.1c-0.9,0-1.6-0.1-2.3-0.4c-0.7-0.2-1.2-0.6-1.6-1.1c-1,1-2.5,1.5-4.4,1.5h-2.8v-2.7h2.8
			c0.7,0,1.2-0.1,1.6-0.2c0.4-0.1,0.7-0.3,0.9-0.5c0.2-0.2,0.3-0.4,0.4-0.7c0.1-0.3,0.1-0.5,0.1-0.7v-4.9h2.7v4.8
			c0,0.4,0.1,0.7,0.2,0.9c0.1,0.2,0.2,0.5,0.4,0.6c0.2,0.2,0.4,0.3,0.6,0.4c0.2,0.1,0.4,0.2,0.6,0.2c0.2,0,0.4,0.1,0.5,0.1
			c0.2,0,0.3,0,0.3,0H192.7z M184.4,37.7l2.4-2.5l2.5,2.5l-2.5,2.5L184.4,37.7z"/>
		<path class="st0" d="M198.6,51.3c0.1,0,0.2,0,0.2,0.1v2.5c0,0.1-0.1,0.1-0.2,0.1h-6.2c-0.1,0-0.1,0-0.1-0.1v-2.5
			c0-0.1,0-0.1,0.1-0.1H198.6z"/>
		<path class="st0" d="M204.5,51.3c0.1,0,0.2,0,0.2,0.1v2.5c0,0.1-0.1,0.1-0.2,0.1h-6.2c-0.1,0-0.1,0-0.1-0.1v-2.5
			c0-0.1,0-0.1,0.1-0.1H204.5z"/>
		<path class="st0" d="M210.5,51.3c0.1,0,0.2,0,0.2,0.1v2.5c0,0.1-0.1,0.1-0.2,0.1h-6.2c-0.1,0-0.1,0-0.1-0.1v-2.5
			c0-0.1,0-0.1,0.1-0.1H210.5z"/>
		<path class="st0" d="M216.4,51.3c0.1,0,0.2,0,0.2,0.1v2.5c0,0.1-0.1,0.1-0.2,0.1h-6.2c-0.1,0-0.1,0-0.1-0.1v-2.5
			c0-0.1,0-0.1,0.1-0.1H216.4z"/>
		<path class="st0" d="M216.2,54v-2.7h2.3c0.7,0,1.2-0.1,1.6-0.2c0.4-0.1,0.7-0.3,0.9-0.5c0.2-0.2,0.3-0.4,0.4-0.7
			c0.1-0.2,0.1-0.5,0.1-0.7v-4.9h2.7v4.7c0,0.5,0.1,1,0.3,1.3c0.2,0.3,0.5,0.5,0.8,0.7c0.1-0.2,0.2-0.4,0.3-0.6
			c0.1-0.2,0.2-0.4,0.3-0.6c0.4-0.6,0.8-1.2,1.2-1.9c0.4-0.6,0.8-1.3,1.3-1.9c0.4-0.6,0.9-1.2,1.4-1.7c0.5-0.5,1-1,1.6-1.4
			c0.6-0.4,1.1-0.7,1.8-0.9c0.6-0.2,1.3-0.4,2-0.4c0.7,0,1.4,0.1,2.1,0.4c0.7,0.3,1.3,0.6,1.8,1.2c0.5,0.5,1,1.2,1.3,2
			c0.3,0.8,0.5,1.8,0.5,2.9c0,1.1-0.2,2-0.5,2.7c-0.4,0.7-0.8,1.3-1.4,1.8c-0.6,0.5-1.2,0.8-1.9,1c-0.7,0.2-1.4,0.3-2,0.3h-8.2
			c-0.7,0-1.3-0.1-2-0.3c-0.6-0.2-1.2-0.5-1.6-0.9c-0.1-0.1-0.2-0.2-0.3-0.3c-0.5,0.5-1.1,0.9-1.8,1.1c-0.7,0.2-1.6,0.4-2.5,0.4
			H216.2z M235.1,51.3c0.5,0,0.9-0.1,1.3-0.2c0.4-0.1,0.7-0.3,1-0.6c0.3-0.3,0.5-0.6,0.6-1c0.1-0.4,0.2-0.8,0.2-1.3
			c0-1.2-0.3-2.2-0.8-2.8c-0.5-0.7-1.2-1-2.2-1c-0.7,0-1.3,0.2-1.9,0.6c-0.6,0.4-1.2,1-1.8,1.7c-0.6,0.7-1.1,1.4-1.7,2.2
			c-0.5,0.8-1,1.6-1.5,2.4H235.1z"/>
		<path class="st0" d="M11,103.2c-1.5,0-2.8-0.3-4-1c-1.2-0.6-2.2-1.6-2.9-2.8c-0.5-0.8-0.9-1.7-1.1-2.7c-0.2-1-0.3-2.1-0.2-3.2
			C2.8,92.5,3,91.3,3.3,90c0.4-1.2,0.8-2.5,1.5-3.8l2.4,1.2c-0.5,1.1-1,2.2-1.3,3.2c-0.3,1-0.5,2-0.6,2.9c-0.1,0.9,0,1.8,0.1,2.5
			c0.2,0.8,0.4,1.5,0.8,2.1c0.5,0.8,1.2,1.4,2,1.8c0.8,0.4,1.7,0.6,2.7,0.6h3.4c1.1,0,2-0.1,2.7-0.4c0.7-0.2,1.2-0.6,1.6-1
			c0.4-0.4,0.7-0.9,0.8-1.5c0.1-0.6,0.2-1.3,0.2-2V90v-0.1v-4.4h2.7V90c0,0.4,0.1,0.7,0.2,1c0.1,0.3,0.3,0.6,0.5,0.8
			c0.2,0.2,0.5,0.4,0.8,0.5c0.3,0.1,0.7,0.2,1,0.2h0.6v2.7H25c-0.9,0-1.8-0.2-2.6-0.6v1c0,2.5-0.7,4.4-2,5.7c-1.3,1.3-3.4,1.9-6,1.9
			H11z M11.1,84.5l2.4-2.5l2.5,2.5L13.6,87L11.1,84.5z"/>
		<path class="st0" d="M31.4,92.5c0.1,0,0.2,0,0.2,0.1v2.5c0,0.1-0.1,0.1-0.2,0.1h-6.2c-0.1,0-0.1,0-0.1-0.1v-2.5
			c0-0.1,0-0.1,0.1-0.1H31.4z"/>
		<path class="st0" d="M41,83.5c0,0.1,0.1,0.2,0.1,0.5c0.1,0.3,0.1,0.6,0.2,0.9c0.1,0.4,0.2,0.8,0.2,1.2s0.2,0.9,0.2,1.4
			c0.1,0.5,0.1,0.9,0.2,1.3c0,0.4,0.1,0.8,0.1,1.1c0,0.9-0.2,1.7-0.5,2.4c-0.3,0.7-0.7,1.2-1.2,1.7c-0.5,0.4-1,0.8-1.6,1
			c-0.6,0.2-1.2,0.3-1.8,0.3h-6v-2.7h6c0.1,0,0.3,0,0.6-0.1c0.3,0,0.5-0.2,0.8-0.3c0.3-0.2,0.5-0.4,0.7-0.8c0.2-0.3,0.3-0.8,0.3-1.4
			c0-0.2,0-0.5-0.1-0.8c0-0.3-0.1-0.7-0.1-1C39.1,87.7,39,87.4,39,87c-0.1-0.4-0.1-0.8-0.2-1.1c-0.1-0.3-0.1-0.7-0.2-0.9
			c-0.1-0.3-0.1-0.5-0.1-0.6L41,83.5z M36.6,100.8l-2.3,2.3l-2.2-2.3l2.3-2.3L36.6,100.8z M42.1,100.7l-2.3,2.3l-2.2-2.3l2.3-2.3
			L42.1,100.7z"/>
		<path class="st0" d="M47.4,100.5c1.4,0,2.7-0.1,3.7-0.3c1-0.2,1.8-0.6,2.3-1c0.5-0.4,0.9-0.9,1.1-1.5c0.2-0.6,0.4-1.4,0.4-2.3
			h-2.6c-0.7,0-1.4-0.1-2-0.3c-0.7-0.2-1.3-0.5-1.9-1c-0.6-0.5-1-1.1-1.4-1.8c-0.4-0.7-0.5-1.7-0.5-2.7c0-0.6,0.1-1.2,0.2-1.7
			c0.1-0.5,0.2-1,0.4-1.4c0.2-0.4,0.4-0.8,0.6-1c0.2-0.3,0.4-0.6,0.6-0.8c0.5-0.5,1.1-0.9,1.8-1.2c0.7-0.3,1.4-0.4,2.2-0.4
			c0.7,0,1.3,0.1,1.9,0.3c0.6,0.2,1.1,0.5,1.6,0.9c1.3,1.2,1.9,3.1,1.9,5.7v2.7h2.2v2.7h-2.2c0,1.4-0.2,2.5-0.6,3.5
			c-0.4,1-1,1.8-1.8,2.5c-0.8,0.7-1.9,1.2-3.1,1.5c-1.3,0.3-2.8,0.5-4.6,0.5V100.5z M52.1,85.6c-0.9,0-1.7,0.3-2.2,1
			c-0.5,0.7-0.8,1.6-0.8,2.8c0,1.2,0.4,2.1,1.1,2.6c0.2,0.1,0.4,0.2,0.6,0.3c0.2,0.1,0.4,0.1,0.6,0.2c0.2,0,0.3,0.1,0.5,0.1
			c0.1,0,0.3,0,0.4,0h2.6v-2.7c0-0.7-0.1-1.3-0.2-1.8c-0.1-0.5-0.2-0.9-0.4-1.2c-0.2-0.3-0.3-0.6-0.6-0.7c-0.2-0.2-0.4-0.3-0.6-0.4
			c-0.2-0.1-0.4-0.1-0.6-0.1C52.3,85.6,52.2,85.6,52.1,85.6z"/>
		<path class="st0" d="M67.1,83.5c0,0.1,0.1,0.2,0.1,0.5c0.1,0.3,0.1,0.6,0.2,0.9c0.1,0.4,0.2,0.8,0.2,1.2s0.2,0.9,0.2,1.4
			c0.1,0.5,0.1,0.9,0.2,1.3c0,0.4,0.1,0.8,0.1,1.1c0,0.9-0.2,1.7-0.5,2.4C67.4,93,67,93.5,66.5,94c-0.5,0.4-1,0.8-1.6,1
			c-0.6,0.2-1.2,0.3-1.8,0.3h-3.7v-2.7H63c0.1,0,0.3,0,0.6-0.1c0.3,0,0.5-0.2,0.8-0.3c0.3-0.2,0.5-0.4,0.7-0.8
			c0.2-0.3,0.3-0.8,0.3-1.4c0-0.2,0-0.5-0.1-0.8c0-0.3-0.1-0.7-0.1-1c-0.1-0.4-0.1-0.7-0.2-1.1c-0.1-0.4-0.1-0.8-0.2-1.1
			c-0.1-0.3-0.1-0.7-0.2-0.9c-0.1-0.3-0.1-0.5-0.1-0.6L67.1,83.5z M62.3,77.6l2.4-2.5l2.5,2.5l-2.5,2.5L62.3,77.6z"/>
		<path class="st0" d="M95.4,100.2c0.7-0.2,1.3-0.4,1.7-0.8c0.5-0.4,0.8-0.8,1-1.4c0.2-0.6,0.3-1.3,0.3-2.1
			c-0.9-0.2-1.8-0.5-2.7-0.7c-0.4-0.1-0.8-0.2-1.2-0.3c-0.4-0.1-0.8-0.2-1.2-0.3c-0.4-0.1-0.8-0.2-1.2-0.3c-0.4-0.1-0.7-0.2-1.1-0.3
			c-0.5-1.1-0.7-2.2-0.6-3.2s0.2-2,0.6-2.9c0.4-0.9,0.9-1.7,1.7-2.5c0.7-0.7,1.5-1.3,2.5-1.7c0.9-0.4,2-0.7,3.1-0.8
			c1.1-0.1,2.3,0,3.5,0.4l-0.7,2.6c-0.7-0.2-1.3-0.3-2-0.3c-0.7,0-1.3,0.1-1.9,0.3c-0.6,0.2-1.2,0.5-1.7,0.8c-0.5,0.4-1,0.8-1.3,1.3
			c-0.4,0.5-0.6,1-0.8,1.7c-0.2,0.6-0.2,1.3-0.1,2l5.5,1.4c0.8,0.2,1.3,0.6,1.7,1c0.4,0.5,0.6,1.1,0.6,1.8c0,1.3-0.1,2.4-0.4,3.3
			c-0.3,0.9-0.8,1.7-1.4,2.4c-0.7,0.6-1.5,1.1-2.5,1.4c-1,0.3-2.3,0.5-3.7,0.5h-3.2c-0.7,0-1.4-0.1-2.1-0.3
			c-0.7-0.2-1.3-0.4-1.9-0.8c-0.6-0.3-1.2-0.7-1.7-1.2c-0.5-0.5-1-1-1.3-1.5c-0.4-0.7-0.8-1.5-1-2.4c-0.2-0.9-0.3-1.8-0.3-2.8
			c0-1.2,0.2-2.5,0.6-3.9c0.4-1.4,0.9-2.8,1.7-4.4c0.4,0.2,0.8,0.4,1.2,0.6c0.4,0.2,0.8,0.4,1.2,0.6c-1.3,2.7-1.9,5-1.9,7
			c0,0.7,0.1,1.4,0.3,2c0.2,0.6,0.4,1.2,0.7,1.7c0.5,0.8,1.2,1.4,2,1.8c0.8,0.4,1.7,0.7,2.7,0.7h3.2
			C93.8,100.4,94.7,100.4,95.4,100.2z"/>
		<path class="st0" d="M113.1,95.3c-0.9,0-1.7-0.1-2.4-0.2c-0.7-0.1-1.2-0.3-1.7-0.6c-0.5-0.2-0.8-0.6-1.1-0.9
			c-0.3-0.4-0.5-0.8-0.6-1.3c-0.2-0.5-0.3-1-0.3-1.7c0-0.6-0.1-1.3-0.1-2V74.7h2.7v13.8c0,0.8,0,1.5,0.1,2c0.1,0.5,0.2,0.9,0.4,1.2
			c0.2,0.3,0.6,0.5,1,0.6c0.5,0.1,1.1,0.2,1.9,0.2V95.3z"/>
		<path class="st0" d="M119,92.5c0.1,0,0.2,0,0.2,0.1v2.5c0,0.1-0.1,0.1-0.2,0.1h-6.2c-0.1,0-0.1,0-0.1-0.1v-2.5
			c0-0.1,0-0.1,0.1-0.1H119z"/>
		<path class="st0" d="M131.6,80.1c1.1,1.1,2,2.1,2.9,3.1c0.4,0.4,0.8,0.8,1.2,1.2c0.4,0.4,0.7,0.8,1.1,1.2s0.6,0.7,0.9,1
			c0.3,0.3,0.4,0.6,0.6,0.8c0.3,0.4,0.5,0.8,0.6,1.2c0.2,0.4,0.3,0.8,0.3,1.2c0.1,0.4,0.1,0.8,0,1.2c0,0.4-0.1,0.9-0.3,1.4
			c-0.2,0.6-0.4,1.1-0.7,1.5c-0.3,0.5-0.7,0.8-1.2,1.2c-0.5,0.3-1,0.6-1.6,0.8c-0.6,0.2-1.2,0.3-1.9,0.3c-0.7,0-1.3-0.1-2-0.3
			c-0.7-0.2-1.4-0.4-2.2-0.8c-0.2-0.1-0.4-0.2-0.6-0.3c-0.2-0.1-0.3-0.2-0.5-0.2c-0.2-0.1-0.3-0.1-0.4-0.2c-0.9,0.3-2,0.5-3.2,0.6
			c-1.2,0.1-2.5,0.2-3.9,0.2h-2.1v-2.7h2.1c0.6,0,1.3,0,1.9,0c0.7,0,1.3-0.1,1.8-0.1c-0.7-0.6-1.2-1.3-1.5-2
			c-0.3-0.7-0.5-1.6-0.5-2.5c0-0.7,0.1-1.4,0.4-2c0.3-0.6,0.6-1.2,1.1-1.6c0.5-0.4,1-0.8,1.7-1.1c0.6-0.3,1.4-0.4,2.1-0.4
			c0.6,0,1.1,0.1,1.6,0.2c0.5,0.2,0.9,0.4,1.3,0.7c0.4,0.3,0.7,0.6,1,0.9c0.3,0.4,0.5,0.7,0.7,1.1c0.2,0.4,0.4,0.8,0.5,1.2
			c0.1,0.4,0.2,0.8,0.2,1.1c0,1-0.2,1.9-0.6,2.7c-0.4,0.8-0.9,1.5-1.6,2.1c0.4,0.2,0.8,0.3,1.3,0.4c0.5,0.1,0.9,0.2,1.4,0.2
			c0.3,0,0.6,0,0.9-0.1c0.3,0,0.6-0.1,0.8-0.2c0.3-0.1,0.5-0.3,0.7-0.5c0.2-0.2,0.4-0.5,0.5-0.8c0.2-0.4,0.2-0.8,0.1-1.3
			c-0.1-0.5-0.3-1-0.6-1.5c-0.3-0.5-0.7-1.1-1.2-1.7s-1-1.2-1.6-1.8c-0.6-0.6-1.2-1.2-1.8-1.8c-0.6-0.6-1.2-1.2-1.8-1.8L131.6,80.1z
			 M127.9,91.5c0.4-0.2,0.7-0.3,1-0.6c0.3-0.2,0.6-0.5,0.8-0.8c0.2-0.3,0.4-0.6,0.5-1c0.1-0.3,0.2-0.7,0.2-1.1
			c0-0.5-0.1-0.9-0.3-1.2c-0.2-0.3-0.4-0.6-0.7-0.8c-0.3-0.2-0.6-0.4-0.9-0.4c-0.3-0.1-0.6-0.1-0.8-0.1c-0.4,0-0.8,0.1-1.1,0.2
			c-0.3,0.1-0.6,0.3-0.9,0.5c-0.2,0.2-0.4,0.5-0.6,0.8c-0.1,0.3-0.2,0.6-0.2,1c0,0.4,0.1,0.8,0.2,1.1c0.1,0.3,0.3,0.6,0.5,0.9
			c0.2,0.3,0.5,0.6,0.9,0.8C127,91,127.4,91.3,127.9,91.5z"/>
		<path class="st0" d="M166.3,100.2c0.7-0.2,1.3-0.4,1.7-0.8c0.5-0.4,0.8-0.8,1-1.4c0.2-0.6,0.3-1.3,0.3-2.1
			c-0.9-0.2-1.8-0.5-2.7-0.7c-0.4-0.1-0.8-0.2-1.2-0.3c-0.4-0.1-0.8-0.2-1.2-0.3c-0.4-0.1-0.8-0.2-1.2-0.3s-0.7-0.2-1.1-0.3
			c-0.5-1.1-0.7-2.2-0.6-3.2s0.2-2,0.6-2.9c0.4-0.9,0.9-1.7,1.7-2.5c0.7-0.7,1.5-1.3,2.5-1.7c0.9-0.4,2-0.7,3.1-0.8
			c1.1-0.1,2.3,0,3.5,0.4l-0.7,2.6c-0.7-0.2-1.3-0.3-2-0.3c-0.7,0-1.3,0.1-1.9,0.3c-0.6,0.2-1.2,0.5-1.7,0.8c-0.5,0.4-1,0.8-1.3,1.3
			c-0.4,0.5-0.6,1-0.8,1.7c-0.2,0.6-0.2,1.3-0.1,2l5.5,1.4c0.8,0.2,1.3,0.6,1.7,1c0.4,0.5,0.6,1.1,0.6,1.8c0,1.3-0.1,2.4-0.4,3.3
			c-0.3,0.9-0.8,1.7-1.4,2.4c-0.7,0.6-1.5,1.1-2.5,1.4c-1,0.3-2.3,0.5-3.7,0.5h-3.2c-0.7,0-1.4-0.1-2.1-0.3
			c-0.7-0.2-1.3-0.4-1.9-0.8c-0.6-0.3-1.2-0.7-1.7-1.2c-0.5-0.5-1-1-1.3-1.5c-0.4-0.7-0.8-1.5-1-2.4c-0.2-0.9-0.3-1.8-0.3-2.8
			c0-1.2,0.2-2.5,0.6-3.9c0.4-1.4,0.9-2.8,1.7-4.4c0.4,0.2,0.8,0.4,1.2,0.6c0.4,0.2,0.8,0.4,1.2,0.6c-1.3,2.7-1.9,5-1.9,7
			c0,0.7,0.1,1.4,0.3,2c0.2,0.6,0.4,1.2,0.7,1.7c0.5,0.8,1.2,1.4,2,1.8c0.8,0.4,1.7,0.7,2.7,0.7h3.2
			C164.8,100.4,165.6,100.4,166.3,100.2z"/>
		<path class="st0" d="M173.4,103.2v-2.7h2c1,0,1.8-0.1,2.6-0.4c0.7-0.2,1.3-0.6,1.8-1.1c0.5-0.5,0.8-1.1,1-1.9
			c0.2-0.8,0.3-1.7,0.3-2.7v-9h2.7v9c0,1.4-0.2,2.6-0.5,3.7c-0.4,1.1-0.9,2-1.6,2.7c-0.7,0.7-1.6,1.3-2.7,1.7
			c-1.1,0.4-2.3,0.6-3.7,0.6H173.4z"/>
		<path class="st0" d="M188.8,100.5c1.4,0,2.7-0.1,3.7-0.3c1-0.2,1.8-0.6,2.3-1c0.5-0.4,0.9-0.9,1.1-1.5c0.2-0.6,0.4-1.4,0.4-2.3
			h-2.6c-0.7,0-1.4-0.1-2-0.3c-0.7-0.2-1.3-0.5-1.9-1c-0.6-0.5-1-1.1-1.4-1.8c-0.4-0.7-0.5-1.7-0.5-2.7c0-0.6,0.1-1.2,0.2-1.7
			c0.1-0.5,0.2-1,0.4-1.4s0.4-0.8,0.6-1c0.2-0.3,0.4-0.6,0.6-0.8c0.5-0.5,1.1-0.9,1.8-1.2c0.7-0.3,1.4-0.4,2.2-0.4
			c0.7,0,1.3,0.1,1.9,0.3c0.6,0.2,1.1,0.5,1.6,0.9c1.3,1.2,1.9,3.1,1.9,5.7v2.7v2.7c0,1.4-0.2,2.5-0.6,3.5c-0.4,1-1,1.8-1.8,2.5
			c-0.8,0.7-1.9,1.2-3.1,1.5c-1.3,0.3-2.8,0.5-4.6,0.5V100.5z M193.5,85.6c-0.9,0-1.7,0.3-2.2,1c-0.5,0.7-0.8,1.6-0.8,2.8
			c0,1.2,0.4,2.1,1.1,2.6c0.2,0.1,0.4,0.2,0.6,0.3c0.2,0.1,0.4,0.1,0.6,0.2c0.2,0,0.3,0.1,0.5,0.1c0.1,0,0.3,0,0.4,0h2.6v-2.7
			c0-0.7-0.1-1.3-0.2-1.8c-0.1-0.5-0.2-0.9-0.4-1.2c-0.2-0.3-0.3-0.6-0.6-0.7c-0.2-0.2-0.4-0.3-0.6-0.4c-0.2-0.1-0.4-0.1-0.6-0.1
			C193.7,85.6,193.6,85.6,193.5,85.6z"/>
		<path class="st0" d="M210.1,95.3c-0.9,0-1.7-0.1-2.4-0.2s-1.2-0.3-1.7-0.6c-0.5-0.2-0.8-0.6-1.1-0.9c-0.3-0.4-0.5-0.8-0.6-1.3
			c-0.2-0.5-0.3-1-0.3-1.7c0-0.6-0.1-1.3-0.1-2V74.7h2.7v13.8c0,0.8,0,1.5,0.1,2c0.1,0.5,0.2,0.9,0.4,1.2c0.2,0.3,0.6,0.5,1,0.6
			c0.5,0.1,1.1,0.2,1.9,0.2V95.3z"/>
		<path class="st0" d="M216,92.5c0.1,0,0.2,0,0.2,0.1v2.5c0,0.1-0.1,0.1-0.2,0.1h-6.2c-0.1,0-0.1,0-0.1-0.1v-2.5
			c0-0.1,0-0.1,0.1-0.1H216z"/>
		<path class="st0" d="M227.6,92.5v2.7h-1.1c-0.9,0-1.6-0.1-2.3-0.4c-0.7-0.2-1.2-0.6-1.6-1.1c-1,1-2.5,1.5-4.4,1.5h-2.8v-2.7h2.8
			c0.7,0,1.2-0.1,1.6-0.2c0.4-0.1,0.7-0.3,0.9-0.5c0.2-0.2,0.3-0.4,0.4-0.7s0.1-0.5,0.1-0.7v-4.9h2.7v4.8c0,0.4,0.1,0.7,0.2,0.9
			c0.1,0.2,0.2,0.5,0.4,0.6c0.2,0.2,0.4,0.3,0.6,0.4c0.2,0.1,0.4,0.2,0.6,0.2c0.2,0,0.4,0.1,0.5,0.1c0.2,0,0.3,0,0.3,0H227.6z
			 M219.3,78.9l2.4-2.5l2.5,2.5l-2.5,2.5L219.3,78.9z"/>
		<path class="st0" d="M227.3,95.3v-2.7h5.5c1.1,0,1.9-0.1,2.6-0.2c0.7-0.2,1.2-0.3,1.5-0.6c0.4-0.2,0.6-0.5,0.7-0.8
			c0.1-0.3,0.2-0.5,0.2-0.8h-2.2c-0.2,0-0.5,0-0.8,0c-0.3,0-0.6-0.1-1-0.1c-0.3-0.1-0.7-0.1-1-0.2c-0.3-0.1-0.7-0.2-1-0.4
			c-0.3-0.2-0.5-0.3-0.8-0.6c-0.3-0.2-0.5-0.5-0.7-0.9c-0.2-0.3-0.4-0.7-0.5-1.2c-0.1-0.5-0.2-1-0.2-1.6c0-0.8,0.1-1.5,0.4-2.2
			c0.3-0.7,0.7-1.3,1.2-1.8c0.5-0.5,1.1-0.9,1.7-1.1c0.6-0.3,1.3-0.4,2.1-0.4c0.8,0,1.6,0.2,2.3,0.5c0.7,0.4,1.3,0.9,1.8,1.5
			c0.5,0.7,0.9,1.5,1.2,2.6c0.2,1,0.4,2.2,0.4,3.5v2c0,0.9-0.2,1.8-0.6,2.5c-0.4,0.7-1,1.3-1.7,1.8c-1.3,0.8-3.1,1.2-5.5,1.2H227.3z
			 M232.3,73.9l2.4-2.5l2.5,2.5l-2.5,2.5L232.3,73.9z M235,82.3c-0.3,0-0.6,0.1-1,0.2c-0.3,0.1-0.6,0.3-0.9,0.5
			c-0.3,0.2-0.5,0.5-0.6,0.9c-0.2,0.4-0.3,0.8-0.3,1.3c0,0.3,0,0.6,0.1,0.8c0.1,0.2,0.2,0.4,0.3,0.5c0.1,0.1,0.2,0.3,0.3,0.3
			c0.1,0.1,0.2,0.2,0.3,0.2c0.3,0.2,0.6,0.3,1,0.4c0.4,0.1,0.9,0.1,1.4,0.1h2.2c0-0.9-0.1-1.8-0.3-2.5c-0.2-0.7-0.4-1.3-0.7-1.7
			C236.5,82.6,235.8,82.3,235,82.3z"/>
	</g>
	<g>
		<rect x="265.3" y="12.8" class="st1" width="1.4" height="110.1"/>
	</g>
	<g>
		<path class="st1" d="M376,30.9h-49.2C326.9,30.9,348.9,13.3,376,30.9z"/>
		<polygon class="st1" points="386.8,41.9 391,48.8 289.5,48.8 292.1,41.9 		"/>
		<polygon class="st1" points="394.4,60.1 395,66.7 286.9,66.7 287.4,60.1 		"/>
		<path class="st1" d="M394.2,78c0,0-0.5,2.6-2.4,6.8H288.7l-1.1-6.8H394.2z"/>
		<polygon class="st0" points="416,68.8 415.5,75.6 308.2,75.6 307.7,68.8 		"/>
		<polygon class="st0" points="413.4,86.9 411,93.8 315.3,93.8 311.9,86.9 		"/>
		<polygon class="st0" points="311.1,50.9 309,57.7 415.2,57.7 413.9,50.9 		"/>
		<path class="st0" d="M376,104.8h-48.9C327.1,104.8,348.7,123.2,376,104.8z"/>
		<path class="st1" d="M322.1,103h56.3l7.1-7.1h-93.1c0,0,16.3,38.7,57.6,38.7s59.2-33.9,59.7-38.7c0,0-13.9,26-43.4,26
			C336.8,121.9,327.1,108.7,322.1,103z"/>
		<path class="st0" d="M324.2,32.7c0,0-5.5,5-6.8,7.1h92.3c0,0-15.3-38.4-57.3-38.4S295,35.9,293.2,39.8c0,0,15.5-26.3,44.7-26.3
			S381,33,381,33L324.2,32.7z"/>
	</g>
</g>
</svg>
