<svg xmlns="http://www.w3.org/2000/svg" width="282.317" height="282.317" viewBox="0 0 282.317 282.317">
  <g id="addon" transform="translate(2.049 103.884) rotate(-30)" opacity="0.15">
    <g id="Group_5" data-name="Group 5">
      <path id="Path_45" data-name="Path 45" d="M179.424,96.986H164.876V58.192a19.392,19.392,0,0,0-19.4-19.4H106.685V24.246a24.247,24.247,0,0,0-48.493,0V38.794H19.4A19.309,19.309,0,0,0,.1,58.192L.049,95.046h14.5a26.186,26.186,0,0,1,0,52.372H.049L0,184.273a19.392,19.392,0,0,0,19.4,19.4H56.252V189.122a26.186,26.186,0,1,1,52.372,0V203.67h36.854a19.392,19.392,0,0,0,19.4-19.4V145.479h14.548a24.247,24.247,0,0,0,0-48.493Z" fill="none" stroke="#5c33a4" stroke-linecap="round" stroke-width="3" stroke-dasharray="12"/>
    </g>
  </g>
</svg>
