<svg xmlns="http://www.w3.org/2000/svg" width="31.502" height="25.361" viewBox="0 0 31.502 25.361">
  <g id="Group_1067" data-name="Group 1067" transform="translate(-60 -203)">
    <path id="Path_36301" data-name="Path 36301" d="M268.5,98.343H256.833A.834.834,0,0,1,256,97.51V80.844a.834.834,0,0,1,.833-.833H268.5a.834.834,0,0,1,.833.833V97.51A.834.834,0,0,1,268.5,98.343Z" transform="translate(-182.668 126.324)" fill="#c8c8c8"/>
    <g id="Group_1066" data-name="Group 1066" transform="translate(73.332 209.667)">
      <path id="Path_36302" data-name="Path 36302" d="M260.167,145.678h-3.333a.833.833,0,1,1,0-1.667h3.333a.833.833,0,0,1,0,1.667Z" transform="translate(-256 -144.011)" fill="#388e3c"/>
      <path id="Path_36303" data-name="Path 36303" d="M260.167,209.678h-3.333a.833.833,0,1,1,0-1.667h3.333a.833.833,0,0,1,0,1.667Z" transform="translate(-256 -204.678)" fill="#388e3c"/>
      <path id="Path_36304" data-name="Path 36304" d="M260.167,273.678h-3.333a.833.833,0,1,1,0-1.667h3.333a.833.833,0,1,1,0,1.667Z" transform="translate(-256 -265.345)" fill="#388e3c"/>
      <path id="Path_36305" data-name="Path 36305" d="M260.167,337.678h-3.333a.833.833,0,1,1,0-1.667h3.333a.833.833,0,0,1,0,1.667Z" transform="translate(-256 -326.011)" fill="#388e3c"/>
      <path id="Path_36306" data-name="Path 36306" d="M386.5,145.678h-1.667a.833.833,0,0,1,0-1.667H386.5a.833.833,0,0,1,0,1.667Z" transform="translate(-377.334 -144.011)" fill="#388e3c"/>
      <path id="Path_36307" data-name="Path 36307" d="M386.5,209.678h-1.667a.833.833,0,0,1,0-1.667H386.5a.833.833,0,0,1,0,1.667Z" transform="translate(-377.334 -204.678)" fill="#388e3c"/>
      <path id="Path_36308" data-name="Path 36308" d="M386.5,273.678h-1.667a.833.833,0,0,1,0-1.667H386.5a.833.833,0,1,1,0,1.667Z" transform="translate(-377.334 -265.345)" fill="#388e3c"/>
      <path id="Path_36309" data-name="Path 36309" d="M386.5,337.678h-1.667a.833.833,0,0,1,0-1.667H386.5a.833.833,0,0,1,0,1.667Z" transform="translate(-377.334 -326.011)" fill="#388e3c"/>
    </g>
    <path id="Path_36310" data-name="Path 36310" d="M14.7,16.182a.819.819,0,0,0-.685-.177L.68,18.505a.831.831,0,0,0-.68.818V37.656a.832.832,0,0,0,.68.818l13.333,2.5a.784.784,0,0,0,.153.015A.833.833,0,0,0,15,40.156V16.824A.831.831,0,0,0,14.7,16.182Z" transform="translate(60 187.011)" fill="#fff"/>
    <path id="Path_36311" data-name="Path 36311" d="M87.277,167.81,84.643,164.8l2.665-3.426a.834.834,0,0,0-1.315-1.025l-2.468,3.173-2.08-2.377a.833.833,0,1,0-1.253,1.1l2.292,2.62-2.323,2.987a.834.834,0,0,0,1.317,1.023l2.125-2.733,2.423,2.768a.832.832,0,1,0,1.253-1.095Z" transform="translate(-15.818 50.475)" fill="#388e3c"/>
    <path id="Path_36312" data-name="Path 36312" d="M140.127,31.562a.59.59,0,0,0,.412.174.572.572,0,0,0,.413-.174l3.726-3.727a.587.587,0,0,0-.829-.83l-2.722,2.728v-11.9a.586.586,0,1,0-1.172,0v11.9l-2.727-2.728a.587.587,0,1,0-.829.83Z" transform="translate(227.295 245.236) rotate(180)" fill="#fff" stroke="#fff" stroke-width="0.75"/>
  </g>
</svg>
