<svg xmlns="http://www.w3.org/2000/svg" width="32.595" height="26.375" viewBox="0 0 32.595 26.375">
  <g id="Group_1068" data-name="Group 1068" transform="translate(-324 -203)">
    <g id="excel" transform="translate(324 187.011)">
      <path id="Path_36301" data-name="Path 36301" d="M268.5,98.343H256.833A.834.834,0,0,1,256,97.51V80.844a.834.834,0,0,1,.833-.833H268.5a.834.834,0,0,1,.833.833V97.51A.834.834,0,0,1,268.5,98.343Z" transform="translate(-242.667 -60.687)" fill="#eceff1"/>
      <g id="Group_1066" data-name="Group 1066" transform="translate(13.333 22.657)">
        <path id="Path_36302" data-name="Path 36302" d="M260.167,145.678h-3.333a.833.833,0,1,1,0-1.667h3.333a.833.833,0,0,1,0,1.667Z" transform="translate(-256 -144.011)" fill="#388e3c"/>
        <path id="Path_36303" data-name="Path 36303" d="M260.167,209.678h-3.333a.833.833,0,1,1,0-1.667h3.333a.833.833,0,0,1,0,1.667Z" transform="translate(-256 -204.678)" fill="#388e3c"/>
        <path id="Path_36304" data-name="Path 36304" d="M260.167,273.678h-3.333a.833.833,0,1,1,0-1.667h3.333a.833.833,0,1,1,0,1.667Z" transform="translate(-256 -265.345)" fill="#388e3c"/>
        <path id="Path_36305" data-name="Path 36305" d="M260.167,337.678h-3.333a.833.833,0,1,1,0-1.667h3.333a.833.833,0,0,1,0,1.667Z" transform="translate(-256 -326.011)" fill="#388e3c"/>
        <path id="Path_36306" data-name="Path 36306" d="M386.5,145.678h-1.667a.833.833,0,0,1,0-1.667H386.5a.833.833,0,0,1,0,1.667Z" transform="translate(-377.334 -144.011)" fill="#388e3c"/>
        <path id="Path_36307" data-name="Path 36307" d="M386.5,209.678h-1.667a.833.833,0,0,1,0-1.667H386.5a.833.833,0,0,1,0,1.667Z" transform="translate(-377.334 -204.678)" fill="#388e3c"/>
        <path id="Path_36308" data-name="Path 36308" d="M386.5,273.678h-1.667a.833.833,0,0,1,0-1.667H386.5a.833.833,0,1,1,0,1.667Z" transform="translate(-377.334 -265.345)" fill="#388e3c"/>
        <path id="Path_36309" data-name="Path 36309" d="M386.5,337.678h-1.667a.833.833,0,0,1,0-1.667H386.5a.833.833,0,0,1,0,1.667Z" transform="translate(-377.334 -326.011)" fill="#388e3c"/>
      </g>
      <path id="Path_36310" data-name="Path 36310" d="M14.7,16.182a.819.819,0,0,0-.685-.177L.68,18.505a.831.831,0,0,0-.68.818V37.656a.832.832,0,0,0,.68.818l13.333,2.5a.784.784,0,0,0,.153.015A.833.833,0,0,0,15,40.156V16.824A.831.831,0,0,0,14.7,16.182Z" transform="translate(0 0)" fill="#2e7d32"/>
      <path id="Path_36311" data-name="Path 36311" d="M87.277,167.81,84.643,164.8l2.665-3.426a.834.834,0,0,0-1.315-1.025l-2.468,3.173-2.08-2.377a.833.833,0,1,0-1.253,1.1l2.292,2.62-2.323,2.987a.834.834,0,0,0,1.317,1.023l2.125-2.733,2.423,2.768a.832.832,0,1,0,1.253-1.095Z" transform="translate(-75.818 -136.536)" fill="#fafafa"/>
    </g>
    <path id="Path_36245" data-name="Path 36245" d="M141.107,35.156a.738.738,0,0,0,.516.217.715.715,0,0,0,.516-.217l4.661-4.663a.734.734,0,0,0-1.038-1.038l-3.406,3.413V17.984a.733.733,0,1,0-1.467,0V32.868l-3.412-3.413a.734.734,0,1,0-1.038,1.038Z" transform="translate(209.137 193.626)" fill="#388e3c" stroke="#388e3c" stroke-width="0.75"/>
  </g>
</svg>
