<svg xmlns="http://www.w3.org/2000/svg" width="63.742" height="57.949" viewBox="0 0 63.742 57.949">
  <g id="danger-sing" transform="translate(0.001 -27.81)">
    <path id="Path_36234" data-name="Path 36234" d="M53.365,85.759H10.376A10.36,10.36,0,0,1,1.4,70.219L22.9,32.99a10.36,10.36,0,0,1,17.943,0l21.495,37.23a10.36,10.36,0,0,1-8.972,15.54ZM31.87,30.787a7.308,7.308,0,0,0-6.393,3.691L3.982,71.708a7.382,7.382,0,0,0,6.393,11.073H53.365a7.382,7.382,0,0,0,6.393-11.073L38.263,34.478A7.306,7.306,0,0,0,31.87,30.787ZM57.856,71.876,37.13,35.978a6.073,6.073,0,0,0-10.519,0L5.885,71.876a6.073,6.073,0,0,0,5.26,9.11H52.6a6.073,6.073,0,0,0,5.26-9.11ZM28.117,47.18a3.753,3.753,0,0,1,7.507,0v12.18a3.753,3.753,0,0,1-7.507,0Zm3.753,27a3.846,3.846,0,1,1,3.846-3.846A3.851,3.851,0,0,1,31.87,74.185Z" transform="translate(0 0)" fill="#e71f1c"/>
  </g>
</svg>
